<?xml version="1.0" encoding="utf-8"?>
<!-- Generator: Adobe Illustrator 24.0.0, SVG Export Plug-In . SVG Version: 6.00 Build 0)  -->
<svg version="1.1" id="Layer_1" xmlns="http://www.w3.org/2000/svg" xmlns:xlink="http://www.w3.org/1999/xlink" x="0px" y="0px"
	 viewBox="0 0 256 256" style="enable-background:new 0 0 256 256;" xml:space="preserve">
<style type="text/css">
	.st0{fill:#FC5D3D;}
	.st1{fill:#AFAFAF;}
	.st2{fill:#72C2E9;}
	.st3{fill:#FFFFFF;}
	.st4{fill:#EFEFEF;}
	.st5{fill:#878787;}
	.st6{fill:#F0C020;}
	.st7{fill:#F8E5B0;}
	.st8{fill:#B34F33;}
	.st9{fill:#FFCBC3;}
	.st10{fill:#FFB69F;}
	.st11{fill:#C5E5FE;}
	.st12{fill:#13BF6D;}
	.st13{fill:#F9E5AF;}
	.st14{fill:#7A7380;}
	.st15{fill:#72C1E8;}
	.st16{fill:#C5E5FF;}
	.st17{fill:#FFCBC2;}
	.st18{fill:#6E6D6C;}
	.st19{fill:#F2E1D7;}
	.st20{fill:#7D7B79;}
	.st21{fill:#D6C0B3;}
	.st22{fill:#76FFBB;}
	.st23{fill:#CF941C;}
	.st24{fill:#7C7B7A;}
	.st25{fill:#FEB69F;}
	.st26{fill:#E8A61E;}
	.st27{fill:#EFF0F0;}
	.st28{fill:#EDC21D;}
	.st29{fill:#4BA5C8;}
	.st30{fill:#E8A61F;}
	.st31{fill:#823A26;}
	.st32{fill:#4C4944;}
	.st33{fill:#4C4945;}
</style>
<g>
	<path class="st1" d="M251.24,35.633v140.23c0,5.91-4.79,10.69-10.69,10.69H15.45c-5.9,0-10.69-4.78-10.69-10.69V35.633
		c0-5.91,4.79-10.69,10.69-10.69h225.1C246.45,24.943,251.24,29.723,251.24,35.633z"/>
	<rect x="19.72" y="39.903" class="st2" width="216.56" height="131.69"/>
	<polygon class="st1" points="149.21,216.314 106.79,216.314 109.643,195.915 110.957,186.555 145.043,186.555 146.357,195.915 	"/>
	<polygon class="st5" points="146.357,195.915 109.643,195.915 110.957,186.555 145.043,186.555 	"/>
	<path class="st1" d="M171.169,223.791v7.266H84.831v-7.266c0-4.125,3.345-7.48,7.48-7.48h71.378
		C167.824,216.311,171.169,219.666,171.169,223.791z"/>
	<polygon class="st0" points="124.47,83.071 93.714,98.33 93.714,134.236 124.47,149.495 155.226,134.236 155.226,98.33 	"/>
	<path class="st9" d="M123.358,143.111l-23.031-11.427c-0.851-0.422-1.389-1.29-1.389-2.24c0-6.472,0-11.411,0-18.677
		c0-1.381,1.119-2.5,2.5-2.5s2.5,1.119,2.5,2.5c0,15.135,0,2.007,0,17.127l20.531,10.186l10.274-5.098
		c1.239-0.613,2.737-0.108,3.351,1.128c0.614,1.237,0.108,2.737-1.128,3.351l-11.386,5.649
		C124.897,143.449,124.078,143.467,123.358,143.111z M142.574,131.89c-0.614-1.237-0.108-2.737,1.128-3.351l2.688-1.333
		c1.239-0.615,2.736-0.109,3.351,1.128s0.108,2.737-1.128,3.351l-2.688,1.333C144.685,133.632,143.187,133.124,142.574,131.89z"/>
	<rect x="19.72" y="55" class="st6" width="52.947" height="116.593"/>
	<rect x="19.72" y="39.903" class="st27" width="216.56" height="15.097"/>
	<path d="M15.45,189.05h92.631l-3.469,24.76H92.31c-5.5,0-9.979,4.48-9.979,9.98v7.27c0,1.376,1.12,2.5,2.5,2.5h86.34
		c1.399,0,2.5-1.137,2.5-2.5v-7.27c0-5.5-4.48-9.98-9.98-9.98h-12.303l-3.469-24.76h29.663c1.38,0,2.5-1.12,2.5-2.5
		c0-1.37-1.12-2.5-2.5-2.5H15.45c-4.511,0-8.181-3.68-8.19-8.19V35.63c0.01-4.5,3.68-8.18,8.19-8.19h24.04c1.38,0,2.5-1.12,2.5-2.5
		s-1.12-2.5-2.5-2.5H15.45c-7.271,0-13.19,5.92-13.19,13.19v140.23C2.26,183.14,8.18,189.05,15.45,189.05z M168.67,223.79v4.77
		H87.33v-4.77c0.01-2.74,2.239-4.97,4.979-4.98c15.022,0,56.38,0,71.38,0C166.43,218.82,168.66,221.05,168.67,223.79z
		 M146.34,213.81h-36.68l3.47-24.76h29.74L146.34,213.81z"/>
	<circle cx="49.49" cy="24.94" r="2.5"/>
	<circle cx="187.58" cy="186.55" r="2.5"/>
	<path d="M253.74,35.63c0-7.27-5.921-13.19-13.19-13.19H59.49c-1.381,0-2.5,1.12-2.5,2.5s1.119,2.5,2.5,2.5h181.06
		c4.51,0.01,8.18,3.69,8.19,8.19v140.23c-0.011,4.51-3.681,8.19-8.19,8.19h-42.97c-1.38,0-2.5,1.13-2.5,2.5c0,1.38,1.12,2.5,2.5,2.5
		h42.97c7.27,0,13.19-5.91,13.19-13.19V35.63z"/>
	<path d="M17.22,39.9c0,49.263,0,84.054,0,131.69c0,1.356,1.102,2.503,2.5,2.503c1.142,0,96.218-0.003,216.561-0.003
		c1.395,0,2.5-1.122,2.5-2.5c0-5.864,0-120.287,0-131.687c0-1.372-1.119-2.503-2.5-2.503c-6.07,0-211.385,0-216.561,0
		C18.365,37.4,17.22,38.509,17.22,39.9z M70.167,169.09H22.22c0-11.59,0-100.536,0-111.59h47.947V169.09z M22.22,52.5V42.403H233.78
		V52.5C231.351,52.5,27.301,52.5,22.22,52.5z M75.167,169.09V57.5H233.78v111.59H75.167z"/>
	<path d="M111.25,92.42c1.217-0.61,1.747-2.074,1.13-3.35c-0.6-1.2-2.14-1.73-3.36-1.13c-1.229,0.62-1.739,2.12-1.12,3.35
		C108.498,92.516,109.978,93.037,111.25,92.42z"/>
	<path d="M176.24,79.6h6.159c1.381,0,2.5-1.12,2.5-2.5c0-1.38-1.119-2.5-2.5-2.5h-7.239c-0.69,0-1.351,0.29-1.82,0.79
		l-18.666,19.874L125.58,80.83c-0.69-0.34-1.53-0.34-2.221,0l-5.38,2.67c-1.229,0.61-1.739,2.11-1.13,3.35
		c0.601,1.2,2.141,1.73,3.36,1.13l4.26-2.12l25.133,12.469l-25.133,12.469l-25.134-12.47l2.955-1.468
		c1.229-0.61,1.74-2.11,1.13-3.35c-0.601-1.2-2.14-1.72-3.351-1.12l-7.47,3.7c-0.841,0.426-1.39,1.301-1.39,2.24v35.91
		c0,0.94,0.55,1.82,1.39,2.23l30.76,15.26c0.678,0.358,1.61,0.324,2.221,0l29.43-14.601l17.28,11.98c0.42,0.29,0.91,0.44,1.42,0.44
		h8.689c1.381,0,2.5-1.12,2.5-2.5s-1.119-2.5-2.5-2.5h-7.909l-16.761-11.621V99.316L176.24,79.6z M126.97,115.14l25.76-12.781
		v30.321l-25.76,12.78V115.14z M96.21,102.359l25.76,12.781v30.321l-25.76-12.77V102.359z"/>
	<path d="M215.229,74.6h-22.21c-1.37,0-2.5,1.12-2.5,2.5c0,1.38,1.13,2.5,2.5,2.5h22.21c1.38,0,2.5-1.12,2.5-2.5
		C217.729,75.72,216.609,74.6,215.229,74.6z"/>
	<path d="M215.229,85.21h-22.21c-1.37,0-2.5,1.13-2.5,2.5c0,1.38,1.13,2.5,2.5,2.5h22.21c1.38,0,2.5-1.12,2.5-2.5
		C217.729,86.34,216.609,85.21,215.229,85.21z"/>
	<path d="M215.229,95.83h-22.21c-1.37,0-2.5,1.12-2.5,2.5c0,1.38,1.13,2.5,2.5,2.5h22.21c1.38,0,2.5-1.12,2.5-2.5
		C217.729,96.95,216.609,95.83,215.229,95.83z"/>
	<path d="M215.229,123.32h-22.21c-1.37,0-2.5,1.12-2.5,2.5s1.13,2.5,2.5,2.5h22.21c1.38,0,2.5-1.12,2.5-2.5
		S216.609,123.32,215.229,123.32z"/>
	<path d="M215.229,133.94h-22.21c-1.37,0-2.5,1.12-2.5,2.5c0,1.37,1.13,2.5,2.5,2.5h22.21c1.38,0,2.5-1.13,2.5-2.5
		C217.729,135.06,216.609,133.94,215.229,133.94z"/>
	<path d="M215.229,144.55h-22.21c-1.37,0-2.5,1.12-2.5,2.5s1.13,2.5,2.5,2.5h22.21c1.38,0,2.5-1.12,2.5-2.5
		S216.609,144.55,215.229,144.55z"/>
	<path d="M31.439,73.69h29.5c1.38,0,2.5-1.12,2.5-2.49c0-1.38-1.12-2.5-2.5-2.5h-29.5c-1.38,0-2.5,1.12-2.5,2.5
		C28.939,72.57,30.06,73.69,31.439,73.69z"/>
	<path d="M31.439,90.54h29.5c1.38,0,2.5-1.13,2.5-2.5c0-1.38-1.12-2.5-2.5-2.5h-29.5c-1.38,0-2.5,1.12-2.5,2.5
		C28.939,89.41,30.06,90.54,31.439,90.54z"/>
	<path d="M31.439,107.38h29.5c1.38,0,2.5-1.13,2.5-2.5c0-1.38-1.12-2.5-2.5-2.5h-29.5c-1.38,0-2.5,1.12-2.5,2.5
		C28.939,106.25,30.06,107.38,31.439,107.38z"/>
	<path d="M31.439,124.22h29.5c1.38,0,2.5-1.12,2.5-2.5s-1.12-2.5-2.5-2.5h-29.5c-1.38,0-2.5,1.12-2.5,2.5
		S30.06,124.22,31.439,124.22z"/>
	<path d="M31.439,141.06h29.5c1.38,0,2.5-1.12,2.5-2.5c0-1.38-1.12-2.5-2.5-2.5h-29.5c-1.38,0-2.5,1.12-2.5,2.5
		C28.939,139.94,30.06,141.06,31.439,141.06z"/>
	<path d="M31.439,157.9h29.5c1.38,0,2.5-1.12,2.5-2.5s-1.12-2.5-2.5-2.5h-29.5c-1.38,0-2.5,1.12-2.5,2.5S30.06,157.9,31.439,157.9z"
		/>
</g>
</svg>
