<?xml version="1.0" encoding="UTF-8"?>
<!DOCTYPE svg PUBLIC "-//W3C//DTD SVG 1.1//EN" "http://www.w3.org/Graphics/SVG/1.1/DTD/svg11.dtd">
<!-- Creator: CorelDRAW 2019 (64-Bit) -->
<svg xmlns="http://www.w3.org/2000/svg" xmlSpace="preserve" width="11in" height="8.5in" version="1.1" style="shape-rendering:geometricPrecision; text-rendering:geometricPrecision; image-rendering:optimizeQuality; fill-rule:evenodd; clip-rule:evenodd"
viewBox="0 0 11000 8500"
 xmlnsXlink="http://www.w3.org/1999/xlink">
 <defs>
  <style type="text/css">
   <![CDATA[
    .fil1 {fill:#FEFEFE}
    .fil180 {fill:#BDBFC1}
    .fil179 {fill:#606062}
    .fil0 {fill:#373435}
    .fil2 {fill:#FCFEFE}
    .fil3 {fill:#F9FBFC}
    .fil4 {fill:#F8F9FA}
    .fil5 {fill:#F7F7F8}
    .fil6 {fill:#F6F5F5}
    .fil7 {fill:#F3F3F4}
    .fil8 {fill:#F3F2F3}
    .fil9 {fill:#F1F1F0}
    .fil10 {fill:#F0EFF0}
    .fil11 {fill:#EEEEEE}
    .fil12 {fill:#EDEDED}
    .fil13 {fill:#ECECEB}
    .fil14 {fill:#EBE9EA}
    .fil15 {fill:#EAE9E9}
    .fil16 {fill:#E8E7E6}
    .fil17 {fill:#E6E4E4}
    .fil18 {fill:#E5E3E4}
    .fil19 {fill:#E3E1E1}
    .fil20 {fill:#E2E0E0}
    .fil21 {fill:#E1DFDF}
    .fil22 {fill:#DFDEDE}
    .fil23 {fill:#DEDCDC}
    .fil24 {fill:#DDDBDB}
    .fil25 {fill:#DBD9D9}
    .fil26 {fill:#DAD8D8}
    .fil27 {fill:#D9D7D7}
    .fil28 {fill:#D8D4D5}
    .fil29 {fill:#D6D3D4}
    .fil30 {fill:#D5D2D3}
    .fil31 {fill:#D3D1D2}
    .fil32 {fill:#D3D0D0}
    .fil33 {fill:#D1CFCF}
    .fil34 {fill:#D0CECE}
    .fil35 {fill:#CECCCC}
    .fil36 {fill:#CDCBCB}
    .fil37 {fill:#CCCACA}
    .fil38 {fill:#CAC8C8}
    .fil39 {fill:#C8C7C7}
    .fil40 {fill:#C8C5C5}
    .fil41 {fill:#C7C4C4}
    .fil42 {fill:#C5C2C1}
    .fil43 {fill:#C4C1C0}
    .fil44 {fill:#C3C0C0}
    .fil45 {fill:#C3BFBF}
    .fil46 {fill:#C0BDBD}
    .fil47 {fill:#BFBCBD}
    .fil48 {fill:#BDBBBC}
    .fil49 {fill:#BDBABA}
    .fil50 {fill:#BCB9B9}
    .fil51 {fill:#BAB7B8}
    .fil52 {fill:#B8B6B7}
    .fil53 {fill:#B8B4B6}
    .fil54 {fill:#B7B3B5}
    .fil55 {fill:#B6B2B3}
    .fil56 {fill:#B5B0B1}
    .fil57 {fill:#B3AFB0}
    .fil58 {fill:#B2AFAF}
    .fil59 {fill:#B1AFAF}
    .fil60 {fill:#B1ADAD}
    .fil61 {fill:#AEABAC}
    .fil62 {fill:#ADAAAB}
    .fil63 {fill:#ACA9AA}
    .fil64 {fill:#ABA8A8}
    .fil65 {fill:#A9A6A7}
    .fil66 {fill:#A9A5A6}
    .fil67 {fill:#A6A3A4}
    .fil68 {fill:#A6A2A3}
    .fil69 {fill:#A5A1A1}
    .fil70 {fill:#A4A0A1}
    .fil71 {fill:#A39FA0}
    .fil72 {fill:#A29E9F}
    .fil73 {fill:#A19D9F}
    .fil74 {fill:#9F9B9D}
    .fil75 {fill:#9E9A9B}
    .fil76 {fill:#9D999A}
    .fil77 {fill:#9C9899}
    .fil78 {fill:#9B9698}
    .fil79 {fill:#9A9696}
    .fil80 {fill:#999596}
    .fil81 {fill:#989495}
    .fil82 {fill:#979394}
    .fil83 {fill:#969293}
    .fil84 {fill:#959192}
    .fil85 {fill:#949091}
    .fil86 {fill:#938F90}
    .fil87 {fill:#928E8F}
    .fil88 {fill:#908C8D}
    .fil89 {fill:#8F8B8C}
    .fil90 {fill:#8E8A8B}
    .fil91 {fill:#8D898A}
    .fil92 {fill:#8C8889}
    .fil93 {fill:#8B8788}
    .fil94 {fill:#8A8688}
    .fil95 {fill:#898587}
    .fil96 {fill:#888486}
    .fil97 {fill:#878384}
    .fil98 {fill:#868283}
    .fil99 {fill:#858182}
    .fil100 {fill:#848082}
    .fil101 {fill:#837F81}
    .fil102 {fill:#827E7F}
    .fil103 {fill:#817D7F}
    .fil104 {fill:#807C7D}
    .fil105 {fill:#807C7D}
    .fil106 {fill:#7F7B7C}
    .fil107 {fill:#7E797B}
    .fil108 {fill:#7C7879}
    .fil109 {fill:#7B7778}
    .fil110 {fill:#7A7677}
    .fil111 {fill:#7A7577}
    .fil112 {fill:#787475}
    .fil113 {fill:#777375}
    .fil114 {fill:#767274}
    .fil115 {fill:#757173}
    .fil116 {fill:#747071}
    .fil117 {fill:#736F71}
    .fil118 {fill:#726E70}
    .fil119 {fill:#716D6F}
    .fil120 {fill:#706C6E}
    .fil121 {fill:#6F6C6D}
    .fil122 {fill:#6E6B6C}
    .fil123 {fill:#6D696A}
    .fil124 {fill:#6C686A}
    .fil125 {fill:#6C6869}
    .fil126 {fill:#6A6667}
    .fil127 {fill:#696566}
    .fil128 {fill:#686465}
    .fil129 {fill:#676364}
    .fil130 {fill:#666264}
    .fil131 {fill:#656163}
    .fil132 {fill:#646061}
    .fil133 {fill:#635F61}
    .fil134 {fill:#625E60}
    .fil135 {fill:#615D5F}
    .fil136 {fill:#605C5D}
    .fil137 {fill:#5F5C5C}
    .fil138 {fill:#5E5B5C}
    .fil139 {fill:#5D595B}
    .fil140 {fill:#5C5859}
    .fil141 {fill:#5B5758}
    .fil142 {fill:#5A5657}
    .fil143 {fill:#595556}
    .fil144 {fill:#595456}
    .fil145 {fill:#575354}
    .fil146 {fill:#575253}
    .fil147 {fill:#555152}
    .fil148 {fill:#545051}
    .fil149 {fill:#544F50}
    .fil150 {fill:#524E4F}
    .fil151 {fill:#514E4E}
    .fil152 {fill:#504D4E}
    .fil155 {fill:#4E4A4B}
    .fil153 {fill:#4F4C4D}
    .fil156 {fill:#4D494A}
    .fil157 {fill:#4C4849}
    .fil154 {fill:#4E4B4C}
    .fil158 {fill:#4B4749}
    .fil159 {fill:#4A4748}
    .fil160 {fill:#494647}
    .fil161 {fill:#484546}
    .fil162 {fill:#474445}
    .fil163 {fill:#464344}
    .fil164 {fill:#454243}
    .fil165 {fill:#444142}
    .fil166 {fill:#434041}
    .fil167 {fill:#423F40}
    .fil168 {fill:#413E3F}
    .fil169 {fill:#403D3E}
    .fil170 {fill:#3E3B3D}
    .fil171 {fill:#3E3A3C}
    .fil172 {fill:#3C3A3B}
    .fil173 {fill:#3C393A}
    .fil174 {fill:#3B3839}
    .fil175 {fill:#3A3738}
    .fil176 {fill:#383537}
    .fil177 {fill:#383536}
    .fil178 {fill:#373435}
   ]]>
  </style>
    <clipPath id="id0">
     <path d="M5077.68 4233.89l0 -551.46 552.8 0 0 551.46 -552.8 0z"/>
    </clipPath>
 </defs>
 <g id="Layer_x0020_1">
  <metadata id="CorelCorpID_0Corel-Layer"/>
  <circle class="fil0" cx="5372.36" cy="3958.44" r="1725.01"/>
  <g>
   <g style="clip-path:url(#id0)">
    <polygon class="fil0" points="5077.69,4236.29 5075.27,3682.44 5630.46,3680.02 5632.88,4233.87 "/>
    <polygon id="1" class="fil1" points="5352.35,3959.89 5352.33,3956.43 5355.8,3956.42 5355.81,3959.88 "/>
    <path id="2" class="fil1" d="M5352.93 3959.31l2.31 -0.01 -0.01 -2.3 -2.31 0.01 0.01 2.31zm-1.72 1.74l-0.03 -5.76 5.78 -0.03 0.02 5.76 -5.78 0.03z"/>
    <path id="3" class="fil2" d="M5351.78 3960.47l4.62 -0.02 -0.02 -4.61 -4.62 0.02 0.02 4.61zm-1.73 1.74l-0.04 -8.07 8.09 -0.04 0.04 8.07 -8.09 0.04z"/>
    <path id="4" class="fil3" d="M5350.62 3961.63l6.94 -0.03 -0.03 -6.92 -6.93 0.03 0.03 6.92zm-1.72 1.74l-0.04 -10.37 10.4 -0.05 0.05 10.38 -10.4 0.04z"/>
    <path id="5" class="fil4" d="M5349.47 3962.79l9.24 -0.04 -0.04 -9.22 -9.24 0.04 0.04 9.22zm-1.72 1.74l-0.06 -12.68 12.71 -0.06 0.06 12.68 -12.71 0.06z"/>
    <path id="6" class="fil5" d="M5348.32 3963.94l11.56 -0.05 -0.05 -11.53 -11.56 0.05 0.05 11.53zm-1.72 1.74l-0.07 -14.98 15.02 -0.07 0.06 14.99 -15.02 0.06z"/>
    <path id="7" class="fil6" d="M5347.17 3965.1l13.87 -0.06 -0.06 -13.83 -13.87 0.06 0.06 13.83zm-1.73 1.74l-0.07 -17.29 17.33 -0.07 0.07 17.29 -17.33 0.07z"/>
    <path id="8" class="fil7" d="M5346.02 3966.26l16.18 -0.07 -0.07 -16.14 -16.18 0.07 0.07 16.14zm-1.73 1.74l-0.09 -19.59 19.65 -0.09 0.09 19.6 -19.65 0.08z"/>
    <path id="9" class="fil8" d="M5344.87 3967.42l18.49 -0.08 -0.08 -18.44 -18.49 0.08 0.08 18.44zm-1.72 1.74l-0.09 -21.91 21.96 -0.09 0.09 21.9 -21.96 0.1z"/>
    <path id="10" class="fil9" d="M5343.72 3968.57l20.8 -0.09 -0.09 -20.75 -20.8 0.09 0.09 20.75zm-1.72 1.74l-0.11 -24.21 24.27 -0.1 0.11 24.21 -24.27 0.11z"/>
    <path id="11" class="fil10" d="M5342.57 3969.74l23.11 -0.1 -0.1 -23.06 -23.11 0.1 0.1 23.06zm-1.73 1.74l-0.11 -26.52 26.58 -0.11 0.12 26.51 -26.58 0.12z"/>
    <path id="12" class="fil11" d="M5341.42 3970.89l25.42 -0.11 -0.11 -25.36 -25.43 0.11 0.11 25.36zm-1.73 1.74l-0.13 -28.82 28.89 -0.13 0.13 28.82 -28.89 0.13z"/>
    <path id="13" class="fil12" d="M5340.27 3972.05l27.74 -0.12 -0.12 -27.67 -27.73 0.12 0.12 27.67zm-1.72 1.74l-0.14 -31.13 31.2 -0.14 0.13 31.13 -31.2 0.14z"/>
    <path id="14" class="fil13" d="M5339.12 3973.21l30.05 -0.13 -0.13 -29.98 -30.04 0.13 0.13 29.97zm-1.72 1.74l-0.15 -33.43 33.51 -0.15 0.15 33.43 -33.51 0.15z"/>
    <path id="15" class="fil14" d="M5337.97 3974.37l32.36 -0.14 -0.14 -32.28 -32.36 0.14 0.14 32.28zm-1.73 1.74l-0.15 -35.74 35.82 -0.16 0.16 35.74 -35.83 0.15z"/>
    <path id="16" class="fil15" d="M5336.82 3975.52l34.67 -0.15 -0.15 -34.59 -34.67 0.15 0.15 34.59zm-1.73 1.74l-0.17 -38.04 38.13 -0.17 0.17 38.04 -38.14 0.17z"/>
    <path id="17" class="fil16" d="M5335.67 3976.68l36.98 -0.16 -0.16 -36.89 -36.98 0.16 0.16 36.89zm-1.72 1.74l-0.18 -40.35 40.45 -0.18 0.17 40.35 -40.44 0.17z"/>
    <path id="18" class="fil17" d="M5334.52 3977.84l39.29 -0.17 -0.17 -39.2 -39.29 0.17 0.17 39.2zm-1.72 1.74l-0.19 -42.65 42.76 -0.19 0.19 42.65 -42.76 0.19z"/>
    <path id="19" class="fil18" d="M5333.37 3979l41.6 -0.18 -0.18 -41.5 -41.6 0.18 0.18 41.5zm-1.73 1.74l-0.2 -44.96 45.07 -0.2 0.2 44.96 -45.07 0.19z"/>
    <path id="20" class="fil19" d="M5332.22 3980.15l43.91 -0.19 -0.19 -43.81 -43.91 0.19 0.19 43.81zm-1.73 1.74l-0.2 -47.27 47.38 -0.2 0.21 47.26 -47.38 0.21z"/>
    <path id="21" class="fil20" d="M5331.06 3981.31l46.22 -0.2 -0.2 -46.11 -46.22 0.2 0.2 46.11zm-1.72 1.74l-0.22 -49.57 49.69 -0.21 0.22 49.57 -49.69 0.22z"/>
    <path id="22" class="fil21" d="M5329.91 3982.47l48.54 -0.21 -0.21 -48.42 -48.54 0.21 0.21 48.42zm-1.72 1.74l-0.23 -51.88 52 -0.23 0.22 51.88 -52 0.23z"/>
    <path id="23" class="fil22" d="M5328.76 3983.63l50.85 -0.22 -0.22 -50.72 -50.85 0.22 0.22 50.72zm-1.73 1.74l-0.24 -54.19 54.31 -0.24 0.24 54.19 -54.31 0.24z"/>
    <path id="24" class="fil23" d="M5327.61 3984.79l53.16 -0.23 -0.23 -53.03 -53.16 0.23 0.23 53.03zm-1.73 1.74l-0.25 -56.49 56.63 -0.25 0.25 56.49 -56.63 0.25z"/>
    <path id="25" class="fil24" d="M5326.46 3985.94l55.47 -0.24 -0.24 -55.34 -55.47 0.24 0.24 55.33zm-1.72 1.74l-0.26 -58.8 58.94 -0.26 0.26 58.8 -58.94 0.26z"/>
    <path id="26" class="fil25" d="M5325.31 3987.1l57.78 -0.25 -0.25 -57.64 -57.78 0.25 0.25 57.64zm-1.72 1.74l-0.27 -61.1 61.25 -0.27 0.27 61.1 -61.25 0.27z"/>
    <path id="27" class="fil26" d="M5324.16 3988.26l60.09 -0.26 -0.26 -59.95 -60.09 0.26 0.26 59.94zm-1.73 1.74l-0.28 -63.41 63.56 -0.28 0.28 63.41 -63.56 0.28z"/>
    <path id="28" class="fil27" d="M5323.01 3989.42l62.4 -0.27 -0.27 -62.25 -62.41 0.27 0.28 62.25zm-1.73 1.74l-0.29 -65.71 65.87 -0.29 0.29 65.71 -65.87 0.28z"/>
    <path id="29" class="fil28" d="M5321.86 3990.57l64.72 -0.28 -0.28 -64.56 -64.71 0.28 0.28 64.56zm-1.72 1.74l-0.3 -68.02 68.19 -0.3 0.3 68.02 -68.18 0.3z"/>
    <path id="30" class="fil29" d="M5320.71 3991.73l67.03 -0.29 -0.3 -66.86 -67.02 0.29 0.29 66.86zm-1.72 1.74l-0.31 -70.32 70.49 -0.31 0.31 70.32 -70.49 0.31z"/>
    <path id="31" class="fil30" d="M5319.56 3992.89l69.33 -0.3 -0.3 -69.17 -69.34 0.3 0.3 69.17zm-1.73 1.74l-0.31 -72.63 72.8 -0.31 0.32 72.63 -72.81 0.32z"/>
    <path id="32" class="fil31" d="M5318.41 3994.05l71.65 -0.31 -0.31 -71.47 -71.65 0.31 0.31 71.48zm-1.73 1.74l-0.33 -74.93 75.11 -0.33 0.33 74.93 -75.11 0.33z"/>
    <path id="33" class="fil32" d="M5317.26 3995.21l73.96 -0.32 -0.32 -73.78 -73.96 0.32 0.32 73.78zm-1.72 1.74l-0.34 -77.24 77.43 -0.34 0.33 77.24 -77.43 0.34z"/>
    <path id="34" class="fil33" d="M5316.11 3996.37l76.27 -0.33 -0.33 -76.09 -76.27 0.33 0.33 76.09zm-1.72 1.74l-0.35 -79.55 79.74 -0.35 0.35 79.55 -79.74 0.35z"/>
    <path id="35" class="fil34" d="M5314.96 3997.52l78.58 -0.34 -0.34 -78.39 -78.58 0.34 0.34 78.39zm-1.73 1.74l-0.35 -81.85 82.05 -0.36 0.36 81.85 -82.05 0.36z"/>
    <path id="36" class="fil35" d="M5313.81 3998.68l80.89 -0.35 -0.35 -80.7 -80.89 0.35 0.35 80.7zm-1.73 1.74l-0.37 -84.16 84.36 -0.37 0.37 84.16 -84.36 0.37z"/>
    <path id="37" class="fil36" d="M5312.65 3999.84l83.2 -0.36 -0.36 -83 -83.2 0.36 0.36 83zm-1.72 1.74l-0.38 -86.46 86.67 -0.38 0.38 86.46 -86.67 0.38z"/>
    <path id="38" class="fil37" d="M5311.5 4001l85.52 -0.37 -0.37 -85.31 -85.52 0.37 0.37 85.31zm-1.72 1.74l-0.39 -88.77 88.98 -0.39 0.39 88.77 -88.98 0.39z"/>
    <path id="39" class="fil38" d="M5310.35 4002.15l87.83 -0.38 -0.38 -87.61 -87.83 0.38 0.38 87.61zm-1.73 1.74l-0.4 -91.07 91.3 -0.4 0.4 91.07 -91.3 0.4z"/>
    <path id="40" class="fil39" d="M5309.2 4003.31l90.14 -0.39 -0.39 -89.92 -90.14 0.39 0.39 89.92zm-1.73 1.74l-0.41 -93.38 93.6 -0.41 0.41 93.38 -93.61 0.41z"/>
    <path id="41" class="fil40" d="M5308.05 4004.47l92.45 -0.4 -0.41 -92.22 -92.45 0.4 0.4 92.22zm-1.72 1.74l-0.42 -95.69 95.92 -0.42 0.42 95.69 -95.92 0.42z"/>
    <path id="42" class="fil41" d="M5306.9 4005.63l94.76 -0.41 -0.41 -94.53 -94.76 0.41 0.41 94.54zm-1.72 1.74l-0.43 -97.99 98.23 -0.43 0.43 97.99 -98.23 0.43z"/>
    <path id="43" class="fil42" d="M5305.75 4006.79l97.07 -0.43 -0.42 -96.83 -97.07 0.42 0.43 96.84zm-1.73 1.74l-0.44 -100.3 100.54 -0.44 0.44 100.3 -100.54 0.44z"/>
    <path id="44" class="fil43" d="M5304.6 4007.94l99.38 -0.43 -0.43 -99.15 -99.39 0.43 0.44 99.15zm-1.73 1.74l-0.45 -102.6 102.85 -0.45 0.45 102.6 -102.85 0.45z"/>
    <path id="45" class="fil44" d="M5303.45 4009.1l101.7 -0.44 -0.44 -101.45 -101.69 0.44 0.44 101.45zm-1.72 1.74l-0.46 -104.91 105.16 -0.46 0.46 104.91 -105.16 0.46z"/>
    <path id="46" class="fil45" d="M5302.3 4010.26l104.01 -0.45 -0.46 -103.76 -104 0.45 0.45 103.76zm-1.72 1.74l-0.47 -107.21 107.47 -0.47 0.47 107.21 -107.47 0.47z"/>
    <path id="47" class="fil46" d="M5301.15 4011.42l106.31 -0.46 -0.46 -106.06 -106.32 0.46 0.46 106.06zm-1.73 1.74l-0.48 -109.52 109.78 -0.48 0.48 109.52 -109.79 0.48z"/>
    <path id="48" class="fil47" d="M5300 4012.57l108.63 -0.47 -0.47 -108.37 -108.63 0.47 0.48 108.37zm-1.73 1.74l-0.49 -111.82 112.09 -0.49 0.49 111.82 -112.09 0.49z"/>
    <path id="49" class="fil48" d="M5298.85 4013.73l110.94 -0.48 -0.48 -110.67 -110.94 0.48 0.48 110.67zm-1.72 1.74l-0.5 -114.13 114.41 -0.5 0.5 114.13 -114.41 0.5z"/>
    <path id="50" class="fil49" d="M5297.7 4014.89l113.25 -0.49 -0.5 -112.98 -113.25 0.49 0.49 112.98zm-1.72 1.74l-0.51 -116.43 116.72 -0.51 0.51 116.43 -116.72 0.51z"/>
    <path id="51" class="fil50" d="M5296.55 4016.05l115.56 -0.5 -0.5 -115.28 -115.56 0.5 0.5 115.28zm-1.73 1.74l-0.52 -118.74 119.03 -0.52 0.52 118.74 -119.03 0.52z"/>
    <path id="52" class="fil51" d="M5295.4 4017.21l117.87 -0.52 -0.51 -117.59 -117.87 0.51 0.52 117.59zm-1.73 1.74l-0.53 -121.05 121.34 -0.53 0.53 121.05 -121.34 0.53z"/>
    <path id="53" class="fil52" d="M5294.24 4018.37l120.19 -0.52 -0.52 -119.89 -120.19 0.52 0.52 119.9zm-1.72 1.74l-0.54 -123.35 123.65 -0.54 0.54 123.35 -123.65 0.54z"/>
    <path id="54" class="fil53" d="M5293.09 4019.52l122.5 -0.54 -0.54 -122.2 -122.5 0.53 0.54 122.2zm-1.72 1.74l-0.55 -125.66 125.96 -0.55 0.55 125.66 -125.96 0.55z"/>
    <path id="55" class="fil54" d="M5291.94 4020.68l124.81 -0.54 -0.54 -124.51 -124.81 0.54 0.54 124.51zm-1.73 1.74l-0.56 -127.96 128.28 -0.56 0.56 127.96 -128.28 0.56z"/>
    <path id="56" class="fil55" d="M5290.8 4021.84l127.12 -0.56 -0.56 -126.81 -127.12 0.56 0.56 126.81zm-1.73 1.74l-0.57 -130.27 130.58 -0.57 0.57 130.27 -130.59 0.57z"/>
    <path id="57" class="fil56" d="M5289.64 4023l129.43 -0.56 -0.56 -129.12 -129.43 0.56 0.56 129.12zm-1.72 1.74l-0.58 -132.57 132.89 -0.58 0.58 132.57 -132.9 0.58z"/>
    <path id="58" class="fil57" d="M5288.49 4024.15l131.74 -0.57 -0.57 -131.42 -131.74 0.57 0.57 131.42zm-1.72 1.74l-0.59 -134.88 135.21 -0.59 0.59 134.88 -135.21 0.59z"/>
    <path id="59" class="fil58" d="M5287.34 4025.31l134.05 -0.58 -0.58 -133.73 -134.06 0.58 0.59 133.73zm-1.72 1.74l-0.6 -137.19 137.52 -0.6 0.6 137.19 -137.52 0.6z"/>
    <path id="60" class="fil59" d="M5286.19 4026.47l136.36 -0.59 -0.59 -136.04 -136.36 0.59 0.59 136.03zm-1.73 1.74l-0.61 -139.49 139.83 -0.61 0.61 139.49 -139.83 0.61z"/>
    <path id="61" class="fil60" d="M5285.04 4027.63l138.68 -0.6 -0.61 -138.34 -138.67 0.6 0.6 138.34zm-1.72 1.74l-0.62 -141.8 142.14 -0.62 0.62 141.8 -142.14 0.62z"/>
    <path id="62" class="fil61" d="M5283.89 4028.78l140.99 -0.61 -0.62 -140.65 -140.98 0.61 0.61 140.64zm-1.72 1.74l-0.63 -144.11 144.45 -0.63 0.63 144.1 -144.45 0.63z"/>
    <path id="63" class="fil62" d="M5282.74 4029.94l143.3 -0.63 -0.62 -142.95 -143.3 0.62 0.63 142.95zm-1.72 1.74l-0.64 -146.41 146.76 -0.64 0.64 146.41 -146.76 0.64z"/>
    <path id="64" class="fil63" d="M5281.59 4031.1l145.61 -0.63 -0.63 -145.26 -145.61 0.63 0.64 145.26zm-1.73 1.74l-0.65 -148.72 149.07 -0.65 0.65 148.72 -149.07 0.65z"/>
    <path id="65" class="fil64" d="M5280.44 4032.26l147.92 -0.65 -0.65 -147.56 -147.92 0.65 0.64 147.56zm-1.72 1.74l-0.66 -151.02 151.39 -0.66 0.66 151.02 -151.39 0.66z"/>
    <path id="66" class="fil65" d="M5279.29 4033.42l150.23 -0.65 -0.66 -149.87 -150.23 0.65 0.65 149.87zm-1.72 1.74l-0.67 -153.33 153.7 -0.67 0.67 153.33 -153.7 0.67z"/>
    <path id="67" class="fil66" d="M5278.14 4034.57l152.54 -0.67 -0.67 -152.17 -152.54 0.67 0.67 152.17zm-1.72 1.74l-0.68 -155.63 156.01 -0.68 0.68 155.63 -156.01 0.68z"/>
    <path id="68" class="fil67" d="M5276.99 4035.73l154.85 -0.67 -0.67 -154.48 -154.85 0.67 0.68 154.48zm-1.73 1.74l-0.69 -157.94 158.32 -0.69 0.69 157.94 -158.32 0.69z"/>
    <path id="69" class="fil68" d="M5275.83 4036.89l157.17 -0.69 -0.69 -156.78 -157.17 0.69 0.69 156.78zm-1.72 1.74l-0.7 -160.24 160.63 -0.7 0.7 160.24 -160.63 0.7z"/>
    <path id="70" class="fil69" d="M5274.69 4038.05l159.48 -0.69 -0.7 -159.09 -159.48 0.69 0.7 159.09zm-1.72 1.74l-0.71 -162.55 162.94 -0.71 0.71 162.55 -162.94 0.71z"/>
    <path id="71" class="fil70" d="M5273.54 4039.2l161.79 -0.7 -0.7 -161.4 -161.79 0.7 0.7 161.39zm-1.72 1.74l-0.72 -164.85 165.26 -0.72 0.72 164.85 -165.25 0.72z"/>
    <path id="72" class="fil71" d="M5272.39 4040.36l164.1 -0.71 -0.72 -163.7 -164.1 0.71 0.72 163.7zm-1.73 1.74l-0.73 -167.16 167.56 -0.73 0.73 167.16 -167.57 0.73z"/>
    <path id="73" class="fil72" d="M5271.23 4041.52l166.41 -0.72 -0.72 -166.01 -166.41 0.72 0.72 166.01zm-1.72 1.74l-0.74 -169.47 169.87 -0.74 0.74 169.46 -169.88 0.74z"/>
    <path id="74" class="fil73" d="M5270.08 4042.68l168.72 -0.74 -0.74 -168.31 -168.72 0.73 0.74 168.31zm-1.72 1.74l-0.75 -171.77 172.19 -0.75 0.75 171.77 -172.19 0.75z"/>
    <path id="75" class="fil74" d="M5268.93 4043.84l171.03 -0.74 -0.74 -170.62 -171.04 0.74 0.75 170.62zm-1.72 1.74l-0.76 -174.08 174.5 -0.76 0.76 174.08 -174.5 0.76z"/>
    <path id="76" class="fil75" d="M5267.78 4045l173.34 -0.76 -0.76 -172.93 -173.34 0.76 0.76 172.93zm-1.73 1.74l-0.77 -176.38 176.81 -0.77 0.77 176.39 -176.81 0.77z"/>
    <path id="77" class="fil76" d="M5266.63 4046.15l175.66 -0.76 -0.77 -175.23 -175.65 0.76 0.76 175.23zm-1.72 1.74l-0.78 -178.69 179.12 -0.78 0.78 178.69 -179.12 0.78z"/>
    <path id="78" class="fil77" d="M5265.48 4047.31l177.96 -0.78 -0.78 -177.54 -177.96 0.78 0.78 177.54zm-1.72 1.74l-0.79 -180.99 181.43 -0.79 0.79 181 -181.43 0.79z"/>
    <path id="79" class="fil78" d="M5264.33 4048.47l180.28 -0.78 -0.78 -179.84 -180.28 0.78 0.79 179.84zm-1.72 1.74l-0.8 -183.3 183.74 -0.8 0.8 183.3 -183.74 0.8z"/>
    <path id="80" class="fil79" d="M5263.18 4049.63l182.59 -0.8 -0.8 -182.15 -182.59 0.8 0.8 182.15zm-1.73 1.74l-0.81 -185.6 186.06 -0.81 0.81 185.61 -186.06 0.81z"/>
    <path id="81" class="fil80" d="M5262.03 4050.78l184.9 -0.8 -0.81 -184.45 -184.9 0.8 0.8 184.45zm-1.72 1.74l-0.82 -187.91 188.37 -0.82 0.82 187.91 -188.37 0.82z"/>
    <path id="82" class="fil81" d="M5260.88 4051.94l187.21 -0.81 -0.82 -186.76 -187.21 0.81 0.81 186.76zm-1.72 1.74l-0.83 -190.22 190.68 -0.83 0.83 190.22 -190.68 0.83z"/>
    <path id="83" class="fil82" d="M5259.73 4053.1l189.52 -0.82 -0.82 -189.06 -189.52 0.82 0.83 189.06zm-1.72 1.74l-0.84 -192.52 192.99 -0.84 0.84 192.52 -192.99 0.84z"/>
    <path id="84" class="fil83" d="M5258.58 4054.26l191.83 -0.83 -0.83 -191.37 -191.83 0.83 0.84 191.37zm-1.73 1.74l-0.85 -194.83 195.3 -0.85 0.85 194.83 -195.3 0.85z"/>
    <path id="85" class="fil84" d="M5257.43 4055.42l194.15 -0.85 -0.85 -193.67 -194.15 0.84 0.85 193.68zm-1.72 1.74l-0.86 -197.13 197.61 -0.86 0.86 197.13 -197.61 0.86z"/>
    <path id="86" class="fil85" d="M5256.28 4056.57l196.46 -0.85 -0.86 -195.98 -196.45 0.86 0.85 195.98zm-1.72 1.74l-0.87 -199.44 199.93 -0.87 0.87 199.44 -199.92 0.87z"/>
    <path id="87" class="fil86" d="M5255.13 4057.73l198.77 -0.87 -0.87 -198.29 -198.77 0.87 0.87 198.29zm-1.72 1.74l-0.88 -201.74 202.23 -0.88 0.88 201.74 -202.23 0.88z"/>
    <path id="88" class="fil87" d="M5253.98 4058.89l201.08 -0.87 -0.88 -200.59 -201.08 0.88 0.88 200.59zm-1.73 1.74l-0.89 -204.05 204.54 -0.89 0.89 204.05 -204.55 0.89z"/>
    <path id="89" class="fil88" d="M5252.82 4060.05l203.39 -0.89 -0.89 -202.9 -203.39 0.89 0.89 202.9zm-1.72 1.74l-0.9 -206.35 206.85 -0.9 0.91 206.36 -206.86 0.9z"/>
    <path id="90" class="fil89" d="M5251.67 4061.2l205.7 -0.89 -0.9 -205.2 -205.7 0.89 0.9 205.2zm-1.72 1.74l-0.91 -208.66 209.17 -0.91 0.91 208.66 -209.17 0.91z"/>
    <path id="91" class="fil90" d="M5250.52 4062.36l208.01 -0.91 -0.91 -207.51 -208.01 0.91 0.91 207.51zm-1.72 1.74l-0.93 -210.96 211.48 -0.92 0.92 210.97 -211.48 0.92z"/>
    <path id="92" class="fil91" d="M5249.37 4063.52l210.32 -0.91 -0.92 -209.81 -210.32 0.91 0.92 209.81zm-1.73 1.74l-0.93 -213.27 213.79 -0.93 0.93 213.27 -213.79 0.93z"/>
    <path id="93" class="fil92" d="M5248.22 4064.68l212.64 -0.93 -0.93 -212.12 -212.63 0.93 0.93 212.12zm-1.72 1.74l-0.94 -215.58 216.1 -0.94 0.94 215.58 -216.1 0.94z"/>
    <path id="94" class="fil92" d="M5247.07 4065.84l214.94 -0.94 -0.94 -214.43 -214.94 0.93 0.94 214.43zm-1.72 1.74l-0.95 -217.89 218.41 -0.95 0.95 217.88 -218.41 0.95z"/>
    <path id="95" class="fil93" d="M5245.92 4067l217.26 -0.95 -0.95 -216.73 -217.26 0.94 0.95 216.73zm-1.72 1.74l-0.96 -220.19 220.72 -0.96 0.96 220.19 -220.72 0.96z"/>
    <path id="96" class="fil94" d="M5244.77 4068.15l219.57 -0.96 -0.96 -219.04 -219.57 0.95 0.96 219.04zm-1.73 1.74l-0.97 -222.5 223.04 -0.97 0.97 222.5 -223.04 0.97z"/>
    <path id="97" class="fil95" d="M5243.62 4069.31l221.88 -0.96 -0.97 -221.35 -221.88 0.97 0.96 221.34zm-1.72 1.74l-0.98 -224.8 225.35 -0.98 0.98 224.8 -225.35 0.98z"/>
    <path id="98" class="fil96" d="M5242.47 4070.47l224.19 -0.98 -0.98 -223.65 -224.19 0.98 0.98 223.65zm-1.72 1.74l-0.99 -227.11 227.66 -0.99 0.99 227.11 -227.66 0.99z"/>
    <path id="99" class="fil97" d="M5241.32 4071.63l226.5 -0.98 -0.99 -225.96 -226.5 0.99 0.99 225.95zm-1.72 1.74l-1 -229.41 229.97 -1 1 229.41 -229.97 1z"/>
    <path id="100" class="fil98" d="M5240.17 4072.78l228.81 -1 -1 -228.26 -228.81 1 1 228.26zm-1.73 1.74l-1.01 -231.72 232.28 -1.01 1.01 231.72 -232.28 1.01z"/>
    <path id="101" class="fil99" d="M5239.02 4073.94l231.13 -1 -1.01 -230.57 -231.13 1 1.01 230.57zm-1.72 1.74l-1.02 -234.02 234.59 -1.02 1.02 234.02 -234.59 1.02z"/>
    <path id="102" class="fil100" d="M5237.87 4075.1l233.44 -1.02 -1.02 -232.87 -233.43 1.02 1.02 232.87zm-1.72 1.74l-1.04 -236.33 236.91 -1.03 1.03 236.33 -236.9 1.03z"/>
    <path id="103" class="fil101" d="M5236.72 4076.26l235.75 -1.02 -1.03 -235.18 -235.74 1.02 1.03 235.18zm-1.72 1.74l-1.04 -238.64 239.21 -1.04 1.04 238.63 -239.21 1.04z"/>
    <path id="104" class="fil102" d="M5235.57 4077.41l238.06 -1.04 -1.04 -237.48 -238.06 1.04 1.04 237.48zm-1.73 1.74l-1.05 -240.94 241.52 -1.05 1.06 240.94 -241.53 1.05z"/>
    <path id="105" class="fil103" d="M5234.41 4078.57l240.37 -1.05 -1.05 -239.79 -240.37 1.04 1.05 239.79zm-1.72 1.74l-1.06 -243.25 243.83 -1.06 1.06 243.24 -243.83 1.06z"/>
    <path id="106" class="fil104" d="M5233.26 4079.73l242.68 -1.06 -1.06 -242.09 -242.68 1.06 1.06 242.09zm-1.72 1.74l-1.07 -245.56 246.15 -1.07 1.07 245.56 -246.15 1.07z"/>
    <path id="107" class="fil104" d="M5232.11 4080.89l244.99 -1.07 -1.07 -244.4 -244.99 1.07 1.07 244.4zm-1.72 1.74l-1.09 -247.86 248.46 -1.08 1.08 247.86 -248.46 1.08z"/>
    <path id="108" class="fil105" d="M5230.96 4082.05l247.3 -1.07 -1.08 -246.71 -247.3 1.08 1.08 246.7zm-1.73 1.74l-1.09 -250.17 250.77 -1.09 1.09 250.17 -250.77 1.09z"/>
    <path id="109" class="fil106" d="M5229.81 4083.2l249.61 -1.09 -1.09 -249.01 -249.61 1.09 1.09 249.01zm-1.73 1.74l-1.1 -252.47 253.08 -1.1 1.11 252.47 -253.08 1.1z"/>
    <path id="110" class="fil107" d="M5228.66 4084.36l251.93 -1.09 -1.1 -251.32 -251.93 1.1 1.1 251.31zm-1.72 1.74l-1.11 -254.78 255.39 -1.11 1.11 254.78 -255.39 1.11z"/>
    <path id="111" class="fil108" d="M5227.51 4085.52l254.24 -1.11 -1.11 -253.62 -254.24 1.11 1.11 253.62zm-1.72 1.74l-1.13 -257.08 257.7 -1.12 1.12 257.08 -257.7 1.12z"/>
    <path id="112" class="fil109" d="M5226.36 4086.68l256.55 -1.11 -1.12 -255.93 -256.55 1.12 1.12 255.93zm-1.73 1.74l-1.13 -259.39 260.02 -1.13 1.13 259.39 -260.02 1.13z"/>
    <path id="113" class="fil110" d="M5225.21 4087.83l258.86 -1.13 -1.13 -258.23 -258.86 1.13 1.13 258.23zm-1.73 1.74l-1.14 -261.69 262.32 -1.14 1.15 261.69 -262.33 1.14z"/>
    <path id="114" class="fil110" d="M5224.06 4088.99l261.17 -1.13 -1.14 -260.54 -261.17 1.13 1.14 260.54zm-1.72 1.74l-1.15 -264 264.64 -1.15 1.15 264 -264.64 1.15z"/>
    <path id="115" class="fil111" d="M5222.91 4090.15l263.48 -1.15 -1.15 -262.84 -263.48 1.15 1.15 262.85zm-1.72 1.74l-1.17 -266.3 266.95 -1.16 1.17 266.3 -266.95 1.16z"/>
    <path id="116" class="fil112" d="M5221.76 4091.31l265.79 -1.16 -1.16 -265.15 -265.8 1.15 1.16 265.15zm-1.73 1.74l-1.17 -268.61 269.26 -1.17 1.17 268.61 -269.26 1.17z"/>
    <path id="117" class="fil113" d="M5220.61 4092.47l268.1 -1.17 -1.17 -267.45 -268.11 1.17 1.17 267.46zm-1.73 1.74l-1.19 -270.91 271.57 -1.19 1.19 270.92 -271.57 1.18z"/>
    <path id="118" class="fil114" d="M5219.46 4093.63l270.42 -1.18 -1.18 -269.76 -270.41 1.18 1.18 269.76zm-1.72 1.74l-1.2 -273.22 273.89 -1.19 1.19 273.22 -273.88 1.19z"/>
    <path id="119" class="fil114" d="M5218.31 4094.78l272.73 -1.19 -1.19 -272.07 -272.72 1.19 1.19 272.07zm-1.72 1.74l-1.2 -275.53 276.19 -1.2 1.2 275.53 -276.19 1.2z"/>
    <path id="120" class="fil115" d="M5217.16 4095.94l275.04 -1.2 -1.2 -274.37 -275.04 1.2 1.2 274.37zm-1.73 1.74l-1.21 -277.83 278.5 -1.21 1.22 277.83 -278.51 1.21z"/>
    <path id="121" class="fil116" d="M5216.01 4097.1l277.35 -1.2 -1.21 -276.68 -277.35 1.21 1.21 276.68zm-1.73 1.74l-1.22 -280.14 280.81 -1.22 1.22 280.14 -280.81 1.22z"/>
    <path id="122" class="fil117" d="M5214.85 4098.26l279.66 -1.22 -1.22 -278.98 -279.66 1.22 1.22 278.98zm-1.72 1.74l-1.24 -282.44 283.13 -1.23 1.23 282.44 -283.13 1.23z"/>
    <path id="123" class="fil118" d="M5213.7 4099.41l281.97 -1.22 -1.23 -281.29 -281.97 1.23 1.23 281.29zm-1.72 1.74l-1.25 -284.75 285.44 -1.24 1.24 284.75 -285.44 1.24z"/>
    <path id="124" class="fil118" d="M5212.56 4100.57l284.28 -1.24 -1.24 -283.59 -284.28 1.24 1.24 283.59zm-1.73 1.74l-1.25 -287.06 287.75 -1.25 1.26 287.06 -287.75 1.25z"/>
    <path id="125" class="fil119" d="M5211.41 4101.73l286.59 -1.24 -1.25 -285.9 -286.59 1.24 1.25 285.9zm-1.73 1.74l-1.26 -289.36 290.06 -1.26 1.27 289.36 -290.06 1.26z"/>
    <path id="126" class="fil120" d="M5210.25 4102.89l288.91 -1.26 -1.26 -288.2 -288.91 1.26 1.26 288.21zm-1.72 1.74l-1.28 -291.67 292.37 -1.27 1.27 291.67 -292.37 1.27z"/>
    <path id="127" class="fil121" d="M5209.1 4104.05l291.22 -1.27 -1.27 -290.51 -291.22 1.26 1.27 290.52zm-1.72 1.74l-1.29 -293.97 294.69 -1.28 1.28 293.97 -294.68 1.28z"/>
    <path id="128" class="fil121" d="M5207.95 4105.2l293.53 -1.28 -1.28 -292.82 -293.53 1.28 1.28 292.82zm-1.73 1.74l-1.3 -296.28 297 -1.3 1.3 296.28 -297 1.29z"/>
    <path id="129" class="fil122" d="M5206.8 4106.36l295.84 -1.29 -1.29 -295.13 -295.84 1.29 1.29 295.13zm-1.73 1.74l-1.3 -298.58 299.3 -1.3 1.31 298.58 -299.31 1.3z"/>
    <path id="130" class="fil123" d="M5205.65 4107.52l298.15 -1.3 -1.3 -297.43 -298.15 1.3 1.3 297.43zm-1.72 1.74l-1.31 -300.89 301.62 -1.31 1.31 300.89 -301.62 1.31z"/>
    <path id="131" class="fil124" d="M5204.5 4108.68l300.46 -1.31 -1.31 -299.74 -300.46 1.31 1.31 299.74zm-1.72 1.74l-1.33 -303.19 303.93 -1.32 1.32 303.19 -303.93 1.32z"/>
    <path id="132" class="fil124" d="M5203.35 4109.83l302.77 -1.31 -1.32 -302.04 -302.78 1.32 1.32 302.04zm-1.73 1.74l-1.33 -305.5 306.24 -1.33 1.33 305.5 -306.24 1.33z"/>
    <path id="133" class="fil125" d="M5202.2 4110.99l305.08 -1.33 -1.33 -304.35 -305.08 1.33 1.33 304.35zm-1.73 1.74l-1.35 -307.8 308.55 -1.34 1.35 307.8 -308.55 1.34z"/>
    <path id="134" class="fil126" d="M5201.05 4112.15l307.4 -1.33 -1.34 -306.65 -307.39 1.34 1.34 306.65zm-1.72 1.74l-1.35 -310.11 310.86 -1.35 1.35 310.11 -310.86 1.35z"/>
    <path id="135" class="fil126" d="M5199.9 4113.31l309.71 -1.35 -1.35 -308.96 -309.7 1.35 1.35 308.96zm-1.72 1.74l-1.37 -312.42 313.17 -1.36 1.37 312.41 -313.17 1.37z"/>
    <path id="136" class="fil127" d="M5198.75 4114.47l312.02 -1.36 -1.36 -311.26 -312.02 1.36 1.36 311.26zm-1.73 1.74l-1.37 -314.72 315.48 -1.37 1.38 314.72 -315.49 1.37z"/>
    <path id="137" class="fil128" d="M5197.6 4115.63l314.33 -1.37 -1.37 -313.57 -314.33 1.37 1.37 313.57zm-1.73 1.74l-1.39 -317.03 317.8 -1.39 1.39 317.03 -317.8 1.38z"/>
    <path id="138" class="fil129" d="M5196.44 4116.78l316.64 -1.38 -1.38 -315.88 -316.64 1.38 1.38 315.88zm-1.72 1.74l-1.4 -319.33 320.11 -1.39 1.39 319.33 -320.11 1.39z"/>
    <path id="139" class="fil129" d="M5195.3 4117.94l318.95 -1.39 -1.39 -318.18 -318.95 1.39 1.39 318.18zm-1.72 1.74l-1.41 -321.64 322.42 -1.41 1.41 321.64 -322.42 1.4z"/>
    <path id="140" class="fil130" d="M5194.15 4119.1l321.26 -1.4 -1.4 -320.49 -321.26 1.4 1.4 320.49zm-1.73 1.74l-1.41 -323.94 324.73 -1.41 1.42 323.94 -324.73 1.41z"/>
    <path id="141" class="fil131" d="M5193 4120.26l323.57 -1.41 -1.41 -322.79 -323.57 1.41 1.41 322.79zm-1.73 1.74l-1.43 -326.25 327.04 -1.43 1.43 326.25 -327.04 1.42z"/>
    <path id="142" class="fil131" d="M5191.84 4121.41l325.89 -1.42 -1.42 -325.1 -325.89 1.42 1.42 325.1zm-1.72 1.74l-1.44 -328.56 329.35 -1.43 1.44 328.56 -329.35 1.43z"/>
    <path id="143" class="fil132" d="M5190.69 4122.57l328.2 -1.43 -1.43 -327.4 -328.2 1.43 1.43 327.4zm-1.72 1.74l-1.45 -330.86 331.67 -1.44 1.44 330.86 -331.66 1.44z"/>
    <path id="144" class="fil133" d="M5189.54 4123.73l330.51 -1.44 -1.44 -329.71 -330.51 1.44 1.44 329.71zm-1.73 1.74l-1.46 -333.17 333.98 -1.45 1.46 333.17 -333.98 1.45z"/>
    <path id="145" class="fil133" d="M5188.39 4124.89l332.82 -1.44 -1.45 -332.02 -332.82 1.45 1.45 332.01zm-1.73 1.74l-1.46 -335.48 336.28 -1.46 1.47 335.47 -336.29 1.46z"/>
    <path id="146" class="fil134" d="M5187.24 4126.05l335.13 -1.46 -1.46 -334.32 -335.13 1.46 1.46 334.32zm-1.72 1.74l-1.48 -337.78 338.59 -1.47 1.48 337.78 -338.6 1.48z"/>
    <path id="147" class="fil135" d="M5186.09 4127.2l337.44 -1.47 -1.47 -336.63 -337.44 1.47 1.47 336.63zm-1.72 1.74l-1.49 -340.09 340.91 -1.48 1.48 340.09 -340.91 1.48z"/>
    <path id="148" class="fil135" d="M5184.94 4128.36l339.75 -1.48 -1.48 -338.93 -339.76 1.48 1.48 338.93zm-1.73 1.74l-1.5 -342.39 343.22 -1.5 1.5 342.39 -343.22 1.5z"/>
    <path id="149" class="fil136" d="M5183.79 4129.52l342.06 -1.49 -1.49 -341.24 -342.06 1.49 1.49 341.24zm-1.73 1.74l-1.51 -344.7 345.53 -1.5 1.51 344.7 -345.53 1.5z"/>
    <path id="150" class="fil136" d="M5182.64 4130.68l344.38 -1.5 -1.5 -343.54 -344.37 1.5 1.5 343.54zm-1.72 1.74l-1.52 -347 347.84 -1.52 1.52 347 -347.84 1.51z"/>
    <path id="151" class="fil137" d="M5181.49 4131.83l346.69 -1.51 -1.51 -345.85 -346.69 1.51 1.51 345.85zm-1.72 1.74l-1.53 -349.31 350.15 -1.52 1.53 349.31 -350.15 1.52z"/>
    <path id="152" class="fil138" d="M5180.34 4132.99l349 -1.52 -1.52 -348.15 -349 1.52 1.52 348.15zm-1.73 1.74l-1.54 -351.61 352.46 -1.54 1.54 351.61 -352.46 1.53z"/>
    <path id="153" class="fil138" d="M5179.19 4134.15l351.31 -1.53 -1.53 -350.46 -351.31 1.53 1.54 350.46zm-1.73 1.74l-1.55 -353.92 354.78 -1.54 1.55 353.92 -354.78 1.54z"/>
    <path id="154" class="fil139" d="M5178.04 4135.31l353.62 -1.54 -1.54 -352.76 -353.62 1.54 1.54 352.76zm-1.72 1.74l-1.56 -356.22 357.09 -1.55 1.56 356.22 -357.09 1.55z"/>
    <path id="155" class="fil140" d="M5176.89 4136.46l355.93 -1.55 -1.56 -355.07 -355.93 1.55 1.55 355.07zm-1.72 1.74l-1.57 -358.53 359.4 -1.56 1.57 358.53 -359.4 1.57z"/>
    <path id="156" class="fil140" d="M5175.74 4137.62l358.24 -1.56 -1.56 -357.38 -358.24 1.56 1.56 357.37zm-1.72 1.74l-1.58 -360.84 361.71 -1.57 1.58 360.83 -361.71 1.57z"/>
    <path id="157" class="fil141" d="M5174.59 4138.78l360.55 -1.57 -1.57 -359.68 -360.56 1.57 1.57 359.69zm-1.73 1.74l-1.59 -363.14 364.02 -1.58 1.59 363.14 -364.02 1.59z"/>
    <path id="158" class="fil141" d="M5173.43 4139.94l362.87 -1.58 -1.58 -361.99 -362.87 1.58 1.58 361.99zm-1.72 1.74l-1.6 -365.45 366.33 -1.59 1.6 365.45 -366.33 1.59z"/>
    <path id="159" class="fil142" d="M5172.28 4141.1l365.18 -1.59 -1.59 -364.3 -365.17 1.59 1.59 364.3zm-1.72 1.74l-1.61 -367.75 368.65 -1.61 1.61 367.75 -368.64 1.61z"/>
    <path id="160" class="fil143" d="M5171.13 4142.26l367.49 -1.6 -1.6 -366.6 -367.49 1.6 1.6 366.6zm-1.72 1.74l-1.62 -370.06 370.95 -1.61 1.62 370.06 -370.95 1.61z"/>
    <path id="161" class="fil143" d="M5169.98 4143.41l369.8 -1.61 -1.61 -368.91 -369.8 1.61 1.61 368.91zm-1.73 1.74l-1.63 -372.36 373.26 -1.63 1.63 372.37 -373.27 1.62z"/>
    <path id="162" class="fil144" d="M5168.83 4144.57l372.11 -1.62 -1.62 -371.21 -372.11 1.62 1.62 371.21zm-1.72 1.74l-1.64 -374.67 375.57 -1.63 1.64 374.67 -375.58 1.63z"/>
    <path id="163" class="fil144" d="M5167.68 4145.73l374.42 -1.63 -1.63 -373.52 -374.42 1.63 1.63 373.52zm-1.72 1.74l-1.65 -376.97 377.89 -1.65 1.65 376.98 -377.89 1.64z"/>
    <path id="164" class="fil145" d="M5166.53 4146.89l376.73 -1.64 -1.64 -375.82 -376.73 1.64 1.64 375.82zm-1.72 1.74l-1.66 -379.28 380.2 -1.65 1.66 379.28 -380.2 1.65z"/>
    <path id="165" class="fil145" d="M5165.38 4148.04l379.04 -1.65 -1.65 -378.13 -379.04 1.65 1.65 378.13zm-1.73 1.74l-1.67 -381.58 382.51 -1.67 1.67 381.59 -382.51 1.66z"/>
    <path id="166" class="fil146" d="M5164.23 4149.2l381.36 -1.66 -1.67 -380.43 -381.35 1.66 1.66 380.43zm-1.72 1.74l-1.68 -383.89 384.82 -1.67 1.68 383.89 -384.82 1.68z"/>
    <path id="167" class="fil147" d="M5163.08 4150.36l383.67 -1.67 -1.67 -382.74 -383.67 1.67 1.67 382.74zm-1.72 1.74l-1.69 -386.2 387.13 -1.68 1.69 386.2 -387.13 1.69z"/>
    <path id="168" class="fil147" d="M5161.93 4151.52l385.98 -1.68 -1.68 -385.04 -385.98 1.68 1.69 385.05zm-1.72 1.74l-1.7 -388.5 389.44 -1.7 1.7 388.5 -389.44 1.7z"/>
    <path id="169" class="fil148" d="M5160.78 4152.68l388.29 -1.69 -1.69 -387.35 -388.29 1.69 1.7 387.35zm-1.73 1.74l-1.71 -390.81 391.76 -1.7 1.71 390.81 -391.76 1.7z"/>
    <path id="170" class="fil148" d="M5159.63 4153.83l390.6 -1.7 -1.7 -389.66 -390.6 1.7 1.7 389.66zm-1.72 1.74l-1.72 -393.11 394.07 -1.72 1.72 393.11 -394.07 1.72z"/>
    <path id="171" class="fil149" d="M5158.48 4154.99l392.91 -1.71 -1.72 -391.96 -392.91 1.71 1.71 391.96zm-1.72 1.74l-1.73 -395.42 396.38 -1.72 1.73 395.42 -396.38 1.72z"/>
    <path id="172" class="fil149" d="M5157.33 4156.15l395.22 -1.72 -1.72 -394.27 -395.22 1.72 1.72 394.27zm-1.72 1.74l-1.74 -397.72 398.69 -1.74 1.74 397.72 -398.69 1.74z"/>
    <path id="173" class="fil150" d="M5156.18 4157.31l397.53 -1.73 -1.73 -396.57 -397.54 1.73 1.74 396.57zm-1.73 1.74l-1.75 -400.03 401 -1.74 1.75 400.03 -401 1.74z"/>
    <path id="174" class="fil151" d="M5155.02 4158.46l399.85 -1.74 -1.74 -398.88 -399.85 1.74 1.74 398.88zm-1.72 1.74l-1.76 -402.33 403.31 -1.76 1.76 402.34 -403.31 1.75z"/>
    <path id="175" class="fil151" d="M5153.87 4159.62l402.16 -1.75 -1.76 -401.19 -402.15 1.75 1.75 401.19zm-1.72 1.74l-1.77 -404.64 405.63 -1.76 1.77 404.64 -405.62 1.76z"/>
    <path id="176" class="fil152" d="M5152.72 4160.78l404.47 -1.76 -1.76 -403.49 -404.47 1.76 1.76 403.49zm-1.72 1.74l-1.78 -406.95 407.93 -1.78 1.78 406.95 -407.93 1.78z"/>
    <path id="177" class="fil152" d="M5151.57 4161.94l406.78 -1.77 -1.77 -405.8 -406.78 1.77 1.78 405.8zm-1.73 1.74l-1.79 -409.26 410.24 -1.78 1.79 409.25 -410.25 1.79z"/>
    <path id="178" class="fil153" d="M5150.42 4163.1l409.09 -1.78 -1.78 -408.1 -409.09 1.78 1.78 408.1zm-1.72 1.74l-1.8 -411.56 412.56 -1.79 1.8 411.56 -412.56 1.8z"/>
    <path id="179" class="fil153" d="M5149.27 4164.26l411.4 -1.79 -1.8 -410.41 -411.4 1.79 1.8 410.41zm-1.72 1.74l-1.81 -413.87 414.87 -1.81 1.81 413.87 -414.87 1.81z"/>
    <path id="180" class="fil154" d="M5148.12 4165.41l413.71 -1.8 -1.8 -412.72 -413.71 1.8 1.8 412.71zm-1.72 1.74l-1.82 -416.17 417.18 -1.81 1.82 416.17 -417.18 1.81z"/>
    <path id="181" class="fil155" d="M5146.97 4166.57l416.02 -1.81 -1.81 -415.02 -416.02 1.81 1.81 415.02zm-1.73 1.74l-1.83 -418.48 419.49 -1.83 1.83 418.48 -419.49 1.83z"/>
    <path id="182" class="fil156" d="M5145.82 4167.73l418.33 -1.82 -1.82 -417.33 -418.33 1.82 1.82 417.32zm-1.72 1.74l-1.84 -420.78 421.8 -1.83 1.84 420.78 -421.8 1.83z"/>
    <path id="183" class="fil156" d="M5144.67 4168.89l420.65 -1.83 -1.83 -419.63 -420.65 1.83 1.83 419.63zm-1.72 1.74l-1.85 -423.09 424.11 -1.85 1.85 423.09 -424.11 1.85z"/>
    <path id="184" class="fil157" d="M5143.52 4170.04l422.96 -1.84 -1.84 -421.94 -422.96 1.84 1.85 421.93zm-1.72 1.74l-1.86 -425.39 426.43 -1.85 1.86 425.39 -426.42 1.85z"/>
    <path id="185" class="fil157" d="M5142.37 4171.2l425.27 -1.85 -1.85 -424.24 -425.27 1.85 1.85 424.24zm-1.73 1.74l-1.87 -427.7 428.74 -1.87 1.87 427.7 -428.74 1.86z"/>
    <path id="186" class="fil158" d="M5141.22 4172.36l427.58 -1.86 -1.87 -426.55 -427.58 1.86 1.86 426.55zm-1.72 1.74l-1.88 -430 431.04 -1.87 1.88 430 -431.05 1.87z"/>
    <path id="187" class="fil158" d="M5140.07 4173.52l429.89 -1.87 -1.88 -428.85 -429.89 1.87 1.87 428.85zm-1.72 1.74l-1.89 -432.31 433.36 -1.89 1.89 432.31 -433.36 1.89z"/>
    <path id="188" class="fil159" d="M5138.92 4174.68l432.2 -1.88 -1.88 -431.16 -432.2 1.88 1.89 431.16zm-1.72 1.74l-1.9 -434.62 435.67 -1.89 1.9 434.61 -435.67 1.9z"/>
    <path id="189" class="fil159" d="M5137.77 4175.83l434.51 -1.89 -1.89 -433.46 -434.52 1.89 1.9 433.46zm-1.73 1.74l-1.91 -436.92 437.98 -1.91 1.91 436.93 -437.98 1.91z"/>
    <path id="190" class="fil160" d="M5136.61 4176.99l436.83 -1.9 -1.91 -435.77 -436.82 1.9 1.9 435.77zm-1.72 1.74l-1.92 -439.23 440.29 -1.92 1.92 439.23 -440.29 1.92z"/>
    <path id="191" class="fil160" d="M5135.46 4178.15l439.14 -1.91 -1.92 -438.07 -439.13 1.91 1.91 438.07zm-1.72 1.74l-1.93 -441.54 442.61 -1.93 1.93 441.54 -442.6 1.93z"/>
    <path id="192" class="fil161" d="M5134.31 4179.31l441.45 -1.92 -1.93 -440.38 -441.44 1.92 1.93 440.38zm-1.72 1.74l-1.94 -443.84 444.91 -1.94 1.94 443.84 -444.91 1.94z"/>
    <path id="193" class="fil161" d="M5133.17 4180.46l443.76 -1.93 -1.93 -442.69 -443.76 1.93 1.94 442.69zm-1.73 1.74l-1.95 -446.15 447.22 -1.94 1.95 446.15 -447.23 1.94z"/>
    <path id="194" class="fil162" d="M5132.01 4181.62l446.07 -1.94 -1.94 -444.99 -446.07 1.94 1.94 444.99zm-1.72 1.74l-1.96 -448.45 449.54 -1.96 1.96 448.45 -449.54 1.96z"/>
    <path id="195" class="fil162" d="M5130.86 4182.78l448.38 -1.95 -1.96 -447.3 -448.38 1.95 1.96 447.3zm-1.72 1.74l-1.97 -450.76 451.85 -1.96 1.97 450.76 -451.85 1.96z"/>
    <path id="196" class="fil163" d="M5129.71 4183.94l450.69 -1.96 -1.97 -449.6 -450.69 1.96 1.96 449.6zm-1.72 1.74l-1.98 -453.06 454.16 -1.98 1.98 453.06 -454.16 1.98z"/>
    <path id="197" class="fil163" d="M5128.56 4185.09l453 -1.97 -1.98 -451.91 -453 1.97 1.98 451.91zm-1.73 1.74l-1.99 -455.37 456.47 -1.98 1.99 455.37 -456.47 1.99z"/>
    <path id="198" class="fil164" d="M5127.41 4186.25l455.31 -1.98 -1.98 -454.21 -455.31 1.98 1.98 454.21zm-1.72 1.74l-2 -457.67 458.78 -2 2 457.67 -458.78 2z"/>
    <path id="199" class="fil164" d="M5126.26 4187.41l457.63 -1.99 -2 -456.52 -457.63 1.99 2 456.52zm-1.72 1.74l-2.01 -459.98 461.09 -2 2.01 459.98 -461.09 2.01z"/>
    <path id="200" class="fil164" d="M5125.11 4188.57l459.94 -2 -2.01 -458.82 -459.94 2 2.01 458.83zm-1.72 1.74l-2.02 -462.28 463.41 -2.02 2.02 462.29 -463.4 2.02z"/>
    <path id="201" class="fil165" d="M5123.96 4189.73l462.25 -2.01 -2.02 -461.13 -462.25 2.01 2.02 461.13zm-1.73 1.74l-2.03 -464.59 465.72 -2.03 2.03 464.59 -465.72 2.03z"/>
    <path id="202" class="fil165" d="M5122.81 4190.89l464.56 -2.02 -2.03 -463.44 -464.56 2.02 2.02 463.44zm-1.72 1.74l-2.04 -466.89 468.02 -2.04 2.04 466.9 -468.03 2.04z"/>
    <path id="203" class="fil166" d="M5121.66 4192.04l466.87 -2.03 -2.04 -465.74 -466.87 2.03 2.04 465.74zm-1.72 1.74l-2.05 -469.2 470.34 -2.05 2.05 469.2 -470.34 2.05z"/>
    <path id="204" class="fil166" d="M5120.51 4193.2l469.18 -2.04 -2.05 -468.05 -469.18 2.04 2.05 468.05zm-1.72 1.74l-2.06 -471.51 472.65 -2.06 2.06 471.51 -472.65 2.06z"/>
    <path id="205" class="fil167" d="M5119.36 4194.36l471.49 -2.05 -2.06 -470.35 -471.5 2.05 2.06 470.35zm-1.73 1.74l-2.07 -473.81 474.96 -2.07 2.07 473.81 -474.96 2.07z"/>
    <path id="206" class="fil167" d="M5118.21 4195.52l473.8 -2.06 -2.07 -472.66 -473.8 2.06 2.07 472.66zm-1.73 1.74l-2.08 -476.12 477.27 -2.07 2.08 476.12 -477.27 2.07z"/>
    <path id="207" class="fil168" d="M5117.06 4196.67l476.12 -2.07 -2.08 -474.96 -476.11 2.07 2.07 474.96zm-1.72 1.74l-2.09 -478.42 479.58 -2.09 2.09 478.42 -479.58 2.09z"/>
    <path id="208" class="fil168" d="M5115.91 4197.83l478.43 -2.08 -2.09 -477.27 -478.43 2.08 2.09 477.27zm-1.72 1.74l-2.1 -480.73 481.89 -2.09 2.1 480.73 -481.89 2.1z"/>
    <path id="209" class="fil169" d="M5114.76 4198.99l480.74 -2.09 -2.09 -479.57 -480.74 2.09 2.1 479.58zm-1.73 1.74l-2.11 -483.04 484.2 -2.11 2.11 483.04 -484.21 2.11z"/>
    <path id="210" class="fil169" d="M5113.61 4200.15l483.05 -2.1 -2.11 -481.88 -483.05 2.1 2.11 481.89zm-1.73 1.74l-2.12 -485.34 486.52 -2.12 2.12 485.34 -486.52 2.12z"/>
    <path id="211" class="fil169" d="M5112.45 4201.31l485.36 -2.11 -2.12 -484.19 -485.36 2.11 2.11 484.19zm-1.72 1.74l-2.13 -487.65 488.83 -2.13 2.13 487.65 -488.83 2.13z"/>
    <path id="212" class="fil170" d="M5111.3 4202.46l487.67 -2.12 -2.13 -486.5 -487.67 2.12 2.13 486.5zm-1.72 1.74l-2.14 -489.95 491.14 -2.14 2.14 489.95 -491.14 2.14z"/>
    <path id="213" class="fil170" d="M5110.15 4203.62l489.98 -2.13 -2.14 -488.8 -489.98 2.13 2.14 488.8zm-1.73 1.74l-2.15 -492.26 493.45 -2.15 2.15 492.26 -493.45 2.15z"/>
    <path id="214" class="fil171" d="M5109 4204.78l492.29 -2.14 -2.15 -491.11 -492.3 2.14 2.15 491.11zm-1.73 1.74l-2.16 -494.56 495.76 -2.16 2.17 494.56 -495.76 2.16z"/>
    <path id="215" class="fil171" d="M5107.85 4205.94l494.61 -2.15 -2.16 -493.41 -494.61 2.15 2.16 493.41zm-1.72 1.74l-2.17 -496.87 498.07 -2.17 2.17 496.87 -498.07 2.17z"/>
    <path id="216" class="fil172" d="M5106.7 4207.09l496.92 -2.16 -2.17 -495.72 -496.92 2.16 2.17 495.72zm-1.72 1.74l-2.19 -499.17 500.39 -2.18 2.18 499.17 -500.38 2.18z"/>
    <path id="217" class="fil172" d="M5105.55 4208.25l499.23 -2.17 -2.18 -498.02 -499.23 2.17 2.18 498.02zm-1.73 1.74l-2.19 -501.48 502.7 -2.19 2.19 501.48 -502.7 2.19z"/>
    <path id="218" class="fil172" d="M5104.4 4209.41l501.54 -2.18 -2.19 -500.33 -501.54 2.18 2.19 500.33zm-1.73 1.74l-2.2 -503.79 505 -2.2 2.2 503.78 -505.01 2.2z"/>
    <path id="219" class="fil173" d="M5103.25 4210.57l503.85 -2.19 -2.2 -502.63 -503.85 2.19 2.2 502.63zm-1.72 1.74l-2.21 -506.09 507.32 -2.2 2.21 506.09 -507.32 2.21z"/>
    <path id="220" class="fil173" d="M5102.1 4211.73l506.16 -2.2 -2.21 -504.94 -506.16 2.2 2.21 504.94zm-1.72 1.74l-2.22 -508.4 509.63 -2.22 2.22 508.4 -509.63 2.22z"/>
    <path id="221" class="fil174" d="M5100.95 4212.89l508.47 -2.21 -2.22 -507.24 -508.48 2.21 2.22 507.24zm-1.73 1.74l-2.23 -510.7 511.94 -2.23 2.23 510.7 -511.94 2.23z"/>
    <path id="222" class="fil174" d="M5099.8 4214.04l510.78 -2.22 -2.23 -509.55 -510.78 2.22 2.23 509.55zm-1.73 1.74l-2.24 -513.01 514.25 -2.24 2.24 513.01 -514.25 2.24z"/>
    <path id="223" class="fil174" d="M5098.65 4215.2l513.1 -2.23 -2.24 -511.86 -513.09 2.23 2.24 511.86zm-1.72 1.74l-2.25 -515.31 516.56 -2.25 2.25 515.31 -516.56 2.25z"/>
    <path id="224" class="fil175" d="M5097.5 4216.36l515.41 -2.24 -2.25 -514.16 -515.41 2.24 2.25 514.16zm-1.72 1.74l-2.26 -517.62 518.87 -2.26 2.26 517.62 -518.87 2.26z"/>
    <path id="225" class="fil175" d="M5096.35 4217.52l517.72 -2.25 -2.26 -516.47 -517.72 2.25 2.26 516.47zm-1.73 1.74l-2.27 -519.93 521.19 -2.27 2.27 519.93 -521.19 2.27z"/>
    <path id="226" class="fil176" d="M5095.2 4218.67l520.03 -2.26 -2.27 -518.77 -520.03 2.26 2.27 518.77zm-1.73 1.74l-2.28 -522.23 523.5 -2.28 2.28 522.23 -523.5 2.28z"/>
    <path id="227" class="fil176" d="M5094.04 4219.83l522.34 -2.27 -2.28 -521.08 -522.34 2.27 2.28 521.08zm-1.72 1.74l-2.3 -524.54 525.81 -2.29 2.29 524.54 -525.81 2.29z"/>
    <path id="228" class="fil176" d="M5092.89 4220.99l524.65 -2.28 -2.29 -523.38 -524.65 2.28 2.29 523.38zm-1.72 1.74l-2.3 -526.85 528.12 -2.3 2.3 526.84 -528.12 2.3z"/>
    <path id="229" class="fil177" d="M5091.74 4222.15l526.96 -2.29 -2.3 -525.69 -526.96 2.29 2.3 525.69zm-1.73 1.74l-2.31 -529.15 530.43 -2.31 2.31 529.15 -530.43 2.31z"/>
    <path id="230" class="fil177" d="M5090.59 4223.31l529.27 -2.3 -2.31 -528 -529.28 2.3 2.31 528zm-1.73 1.74l-2.32 -531.46 532.74 -2.31 2.32 531.45 -532.74 2.32z"/>
    <path id="231" class="fil178" d="M5089.44 4224.46l531.59 -2.31 -2.32 -530.3 -531.59 2.31 2.32 530.3zm-1.72 1.74l-2.33 -533.76 535.06 -2.33 2.33 533.76 -535.05 2.33z"/>
    <path id="232" class="fil0" d="M5088.29 4225.62l533.9 -2.32 -2.33 -532.61 -533.89 2.33 2.33 532.61zm-1.15 1.16l-2.34 -534.91 536.21 -2.33 2.34 534.91 -536.21 2.33z"/>
   </g>
  </g>
  <g>
   <g id="_2669895606960">
    <path class="fil179" d="M5952.06 3703.8l-214.74 2.02 -66.84 186.29 66.84 56.96 214.33 0 253.69 0 0 -591.37c-1.12,-240.03 -130.89,-442.35 -500.08,-453.68l-34.06 0 -235.67 -0.28 -60.07 712.3 63.35 53.12 254.95 0.26 0 -496.9c238.3,1.05 258.3,119.5 258.3,220.74l0 310.53z"/>
    <polygon class="fil179" points="5693.47,4320.52 5626.91,4259.23 5440.56,4319.34 5377.56,4867.21 5440.56,4936.39 5693.47,4936.39 "/>
    <path class="fil179" d="M5737.82 4269.02c185.82,18.2 231.16,130.76 214.24,221.87l-69.91 376.35 69.91 69.16 253.27 0 0 -481.08c-1.08,-230.12 -129.9,-429.53 -468.27,-453.57l-66.11 206.39 66.88 60.88z"/>
    <path class="fil179" d="M5059.28 3948.47l-212.12 0.6 -253.69 0 -52.85 -57.04 52.85 -534.34c1.13,-240.03 125.86,-420.18 495.06,-431.52l34.05 0 173 -44.6 62.67 44.6 0 246.33 -249.74 0c-241.58,-0.09 -261.76,119.02 -261.76,220.76l0 310.53 153.72 -53.81 58.81 53.81 0 244.67z"/>
    <path class="fil179" d="M4863.19 4938.56l-34.05 0 -235.67 0 -52.92 -69.1 52.92 -177.23 249.74 0c241.57,0.1 261.08,-119 261.76,-220.74l1.03 -152.99 191.46 -61.29 62.22 61.29 -1.43 188.55c-1.13,240.03 -125.85,420.19 -495.06,431.51z"/>
   </g>
   <g id="_2669895606416">
    <path class="fil180" d="M5882.59 3649.86l-212.12 2 0 240.28 211.72 0 250.59 0 0 -584.16c-1.11,-237.11 -124.33,-415.07 -489.02,-426.26l-33.64 0 -232.8 0 -1.73 734.19 251.85 0 0 -490.85c235.41,1.03 255.15,118.04 255.15,218.05l0 306.75z"/>
    <polygon class="fil180" points="5627.16,4259.07 5377.32,4257.9 5377.32,4867.43 5627.16,4867.43 "/>
    <path class="fil180" d="M5670.97 4208.19c183.56,17.97 211.61,127.61 211.61,219.17l0 440.07 250.2 0 0 -475.2c-1.07,-227.32 -126.57,-400.28 -460.83,-424.03l-0.98 240z"/>
    <path class="fil180" d="M5000.68 3891.55l-209.53 0.59 -250.59 0 0 -584.16c1.11,-237.11 124.33,-415.07 489.02,-426.26l33.64 0 232.8 0 0 243.33 -246.69 0c-238.64,-0.09 -258.57,117.56 -258.57,218.06l0 306.75 209.93 0 0 241.69z"/>
    <path class="fil180" d="M4807 4869.59l-33.64 0 -232.8 0 0 -243.33 246.69 0c238.64,0.09 257.9,-117.56 258.57,-218.06l1.02 -151.12 250.59 0 -1.41 186.25c-1.11,237.11 -124.33,415.07 -489.02,426.26z"/>
   </g>
  </g>
 </g>
</svg>
