<?xml version="1.0" encoding="utf-8"?>
<!-- Generator: Adobe Illustrator 24.0.0, SVG Export Plug-In . SVG Version: 6.00 Build 0)  -->
<svg version="1.1" id="Layer_1" xmlns="http://www.w3.org/2000/svg" xmlns:xlink="http://www.w3.org/1999/xlink" x="0px" y="0px"
	 viewBox="0 0 256 256" style="enable-background:new 0 0 256 256;" xml:space="preserve">
<style type="text/css">
	.st0{fill:#FC5D3D;}
	.st1{fill:#AFAFAF;}
	.st2{fill:#72C2E9;}
	.st3{fill:#FFFFFF;}
	.st4{fill:#EFEFEF;}
	.st5{fill:#878787;}
	.st6{fill:#F0C020;}
	.st7{fill:#F8E5B0;}
	.st8{fill:#B34F33;}
	.st9{fill:#FFCBC3;}
	.st10{fill:#FFB69F;}
	.st11{fill:#C5E5FE;}
	.st12{fill:#13BF6D;}
	.st13{fill:#F9E5AF;}
	.st14{fill:#7A7380;}
	.st15{fill:#72C1E8;}
	.st16{fill:#C5E5FF;}
	.st17{fill:#FFCBC2;}
	.st18{fill:#6E6D6C;}
	.st19{fill:#F2E1D7;}
	.st20{fill:#7D7B79;}
	.st21{fill:#D6C0B3;}
	.st22{fill:#76FFBB;}
	.st23{fill:#CF941C;}
	.st24{fill:#7C7B7A;}
	.st25{fill:#FEB69F;}
	.st26{fill:#E8A61E;}
	.st27{fill:#EFF0F0;}
	.st28{fill:#EDC21D;}
	.st29{fill:#4BA5C8;}
	.st30{fill:#E8A61F;}
	.st31{fill:#823A26;}
	.st32{fill:#4C4944;}
	.st33{fill:#4C4945;}
</style>
<g>
	<path class="st1" d="M240.552,24.943H15.448c-5.901,0-10.685,4.784-10.685,10.685v140.239c0,5.901,4.784,10.685,10.685,10.685
		h225.104c5.901,0,10.685-4.784,10.685-10.685V35.628C251.237,29.727,246.453,24.943,240.552,24.943z"/>
	
		<rect x="62.155" y="-2.53" transform="matrix(-1.836970e-16 1 -1 -1.836970e-16 233.7478 -22.2522)" class="st2" width="131.69" height="216.555"/>
	<polygon class="st6" points="158.304,65.061 97.696,65.061 90.253,39.903 165.747,39.903 	"/>
	<path class="st1" d="M146.126,65.061h-36.251v9.184c0,3.128,2.536,5.664,5.664,5.664h24.923c3.128,0,5.664-2.536,5.664-5.664
		V65.061z"/>
	<polygon class="st1" points="149.21,216.314 106.79,216.314 109.643,195.916 110.957,186.555 145.043,186.555 146.357,195.916 	"/>
	<polygon class="st5" points="146.357,195.916 109.643,195.916 110.957,186.555 145.043,186.555 	"/>
	<path class="st1" d="M171.169,223.791v7.266H84.831v-7.266c0-4.125,3.345-7.48,7.48-7.48h71.378
		C167.824,216.311,171.169,219.666,171.169,223.791z"/>
	<path d="M136.97,55.327c1.381,0,2.5-1.119,2.5-2.5v-0.69c0-1.381-1.119-2.5-2.5-2.5s-2.5,1.119-2.5,2.5v0.69
		C134.47,54.208,135.589,55.327,136.97,55.327z"/>
	<path d="M149.274,55.327c1.381,0,2.5-1.119,2.5-2.5v-0.69c0-1.381-1.119-2.5-2.5-2.5s-2.5,1.119-2.5,2.5v0.69
		C146.774,54.208,147.894,55.327,149.274,55.327z"/>
	<path d="M105.921,54.637h18.457c1.381,0,2.5-1.119,2.5-2.5s-1.119-2.5-2.5-2.5h-18.457c-1.381,0-2.5,1.119-2.5,2.5
		S104.54,54.637,105.921,54.637z"/>
	<path d="M19.723,174.093h216.555c1.381,0,2.5-1.119,2.5-2.5V39.903c0-1.381-1.119-2.5-2.5-2.5c-11.252,0-206.343,0-216.555,0
		c-1.381,0-2.5,1.119-2.5,2.5v131.69C17.223,172.974,18.342,174.093,19.723,174.093z M162.4,42.403l-5.964,20.158
		c-6.85,0-50.147,0-56.873,0L93.6,42.403H162.4z M115.539,77.409c-1.745,0-3.165-1.419-3.165-3.164v-6.684h31.252v6.684
		c0,1.745-1.42,3.164-3.165,3.164H115.539z M22.223,42.403h66.163l6.914,23.368c0.314,1.062,1.29,1.791,2.397,1.791h9.678v6.684
		c0,4.501,3.663,8.164,8.165,8.164h9.961v11.944c0,1.381,1.119,2.5,2.5,2.5s2.5-1.119,2.5-2.5V82.409h9.961
		c4.502,0,8.165-3.663,8.165-8.164v-6.684h9.678c1.107,0,2.083-0.729,2.397-1.791l6.914-23.368h66.163v126.69H22.223V42.403z"/>
	<path d="M109.29,107.23c-1.021-0.85-2.67-0.7-3.521,0.31L87.87,128.88c-0.78,0.93-0.78,2.28,0,3.21l17.899,21.34
		c0.894,1.061,2.456,1.185,3.521,0.31c1.06-0.89,1.2-2.47,0.31-3.52c0-0.01,0-0.01,0-0.01l-16.55-19.72l16.55-19.74
		C110.49,109.7,110.35,108.12,109.29,107.23z"/>
	<path d="M150.229,107.54c-0.859-1.02-2.5-1.16-3.52-0.31c-1.086,0.896-1.183,2.483-0.311,3.52l16.551,19.73l-16.551,19.74
		c-0.913,1.084-0.734,2.658,0.311,3.52c1.085,0.892,2.647,0.727,3.52-0.31l17.9-21.34c0.78-0.93,0.78-2.28,0-3.21L150.229,107.54z"
		/>
	<path d="M135.88,106.76c-1.188-0.396-2.684,0.224-3.13,1.64l-13.271,42.68c-0.41,1.32,0.33,2.72,1.65,3.13
		c1.401,0.407,2.732-0.372,3.13-1.65l13.26-42.67C137.93,108.57,137.2,107.17,135.88,106.76z"/>
	<path d="M15.448,189.053h92.633l-3.469,24.757H92.31c-5.5,0-9.979,4.48-9.979,9.98v7.27c0,1.398,1.154,2.5,2.5,2.5h86.34
		c1.369,0,2.5-1.12,2.5-2.5v-7.27c0-5.5-4.48-9.98-9.98-9.98h-12.303l-3.469-24.757h92.634c7.271,0,13.186-5.915,13.186-13.186
		V35.628c0-7.27-5.915-13.185-13.186-13.185H15.448c-7.271,0-13.186,5.915-13.186,13.185v140.239
		C2.263,183.138,8.178,189.053,15.448,189.053z M168.67,223.79v4.77H87.33v-4.77c0.01-2.74,2.239-4.97,4.979-4.98
		c15.022,0,56.38,0,71.38,0C166.43,218.82,168.66,221.05,168.67,223.79z M146.34,213.81h-36.68l3.469-24.757h29.741L146.34,213.81z
		 M7.263,35.628c0-4.513,3.672-8.185,8.186-8.185h225.104c4.514,0,8.186,3.672,8.186,8.185v140.239c0,4.514-3.672,8.186-8.186,8.186
		H15.448c-4.514,0-8.186-3.672-8.186-8.186V35.628z"/>
</g>
</svg>
